<!DOCTYPE svg PUBLIC "-//W3C//DTD SVG 1.1//EN" "http://www.w3.org/Graphics/SVG/1.1/DTD/svg11.dtd">
<!-- Uploaded to: SVG Repo, www.svgrepo.com, Transformed by: SVG Repo Mixer Tools -->
<svg version="1.1" id="Icons" xmlns="http://www.w3.org/2000/svg" xmlns:xlink="http://www.w3.org/1999/xlink" viewBox="0 0 32 32" xml:space="preserve" width="64px" height="64px" fill="#ffffff" stroke="#ffffff">
<g id="SVGRepo_bgCarrier" stroke-width="0"/>
<g id="SVGRepo_tracerCarrier" stroke-linecap="round" stroke-linejoin="round"/>
<g id="SVGRepo_iconCarrier"> <style type="text/css"> .st0{fill:none;stroke:#ffffff;stroke-width:1.92;stroke-linecap:round;stroke-linejoin:round;stroke-miterlimit:10;} .st1{fill:none;stroke:#ffffff;stroke-width:1.92;stroke-linejoin:round;stroke-miterlimit:10;} </style> <line class="st0" x1="10.5" y1="5.14" x2="10.5" y2="10.5"/> <polyline class="st0" points="12.65,3 10.5,5.14 8.36,3 "/> <line class="st0" x1="5.87" y1="7.82" x2="10.5" y2="10.5"/> <polyline class="st0" points="5.08,4.89 5.87,7.82 2.94,8.61 "/> <line class="st0" x1="5.87" y1="13.18" x2="10.5" y2="10.5"/> <polyline class="st0" points="2.94,12.39 5.87,13.18 5.08,16.11 "/> <line class="st0" x1="10.5" y1="15.86" x2="10.5" y2="10.5"/> <polyline class="st0" points="8.36,18 10.5,15.86 12.65,18 "/> <line class="st0" x1="15.14" y1="13.18" x2="10.5" y2="10.5"/> <polyline class="st0" points="15.93,16.11 15.14,13.18 18.07,12.39 "/> <line class="st0" x1="15.14" y1="7.82" x2="10.5" y2="10.5"/> <polyline class="st0" points="18.07,8.61 15.14,7.82 15.93,4.89 "/> <line class="st0" x1="23" y1="18.79" x2="23" y2="23.04"/> <polyline class="st0" points="24.7,17.09 23,18.79 21.3,17.09 "/> <line class="st0" x1="19.32" y1="20.91" x2="23" y2="23.04"/> <polyline class="st0" points="18.7,18.59 19.32,20.91 17,21.53 "/> <line class="st0" x1="19.32" y1="25.16" x2="23" y2="23.04"/> <polyline class="st0" points="17,24.54 19.32,25.16 18.7,27.48 "/> <line class="st0" x1="23" y1="27.28" x2="23" y2="23.04"/> <polyline class="st0" points="21.3,28.98 23,27.28 24.7,28.98 "/> <line class="st0" x1="26.68" y1="25.16" x2="23" y2="23.04"/> <polyline class="st0" points="27.3,27.48 26.68,25.16 29,24.54 "/> <line class="st0" x1="26.68" y1="20.91" x2="23" y2="23.04"/> <polyline class="st0" points="29,21.53 26.68,20.91 27.3,18.59 "/> </g>
</svg>