<?xml version="1.0" encoding="UTF-8"?>
<!DOCTYPE svg PUBLIC "-//W3C//DTD SVG 1.1//EN" "http://www.w3.org/Graphics/SVG/1.1/DTD/svg11.dtd">
<svg xmlns="http://www.w3.org/2000/svg" version="1.1" width="985px" height="137px" style="shape-rendering:geometricPrecision; text-rendering:geometricPrecision; image-rendering:optimizeQuality; fill-rule:evenodd; clip-rule:evenodd" xmlns:xlink="http://www.w3.org/1999/xlink">
<g><path style="opacity:0.004" fill="#4f4f4f" d="M 638.5,20.5 C 639.601,19.4017 640.934,19.235 642.5,20C 641.207,20.49 639.873,20.6567 638.5,20.5 Z"/></g>
<g><path style="opacity:0.02" fill="#121212" d="M 594.5,20.5 C 594.5,20.8333 594.5,21.1667 594.5,21.5C 589.706,20.9031 585.373,21.5698 581.5,23.5C 580.566,22.4324 580.232,21.099 580.5,19.5C 585.13,20.2295 589.797,20.5628 594.5,20.5 Z"/></g>
<g><path style="opacity:0.016" fill="#464646" d="M 605.5,21.5 C 601.833,21.5 598.167,21.5 594.5,21.5C 594.5,21.1667 594.5,20.8333 594.5,20.5C 598.562,18.8243 602.229,19.1576 605.5,21.5 Z"/></g>
<g><path style="opacity:0.004" fill="#4a4a4a" d="M 636.5,21.5 C 634.5,21.5 632.5,21.5 630.5,21.5C 629.167,20.1667 627.833,20.1667 626.5,21.5C 622.167,21.5 617.833,21.5 613.5,21.5C 614.624,20.1914 616.124,19.5247 618,19.5C 621.935,20.1254 625.935,20.1254 630,19.5C 632.61,19.5332 634.777,20.1999 636.5,21.5 Z"/></g>
<g><path style="opacity:0.621" fill="#7c7c7c" d="M 136.5,26.5 C 136.5,25.1667 136.5,23.8333 136.5,22.5C 129.167,22.5 121.833,22.5 114.5,22.5C 115.531,21.7515 116.698,21.0848 118,20.5C 123.631,20.4274 129.464,20.5941 135.5,21C 137.632,22.6204 137.965,24.4537 136.5,26.5 Z"/></g>
<g><path style="opacity:0.144" fill="#aaaaaa" d="M 652.5,38.5 C 652.5,33.1667 652.5,27.8333 652.5,22.5C 629.167,22.5 605.833,22.5 582.5,22.5C 582.5,27.5 582.5,32.5 582.5,37.5C 590.684,37.1743 598.684,37.5076 606.5,38.5C 598.167,38.5 589.833,38.5 581.5,38.5C 580.684,33.5411 580.684,28.5411 581.5,23.5C 585.373,21.5698 589.706,20.9031 594.5,21.5C 598.167,21.5 601.833,21.5 605.5,21.5C 608.167,21.5 610.833,21.5 613.5,21.5C 617.833,21.5 622.167,21.5 626.5,21.5C 627.833,21.5 629.167,21.5 630.5,21.5C 632.5,21.5 634.5,21.5 636.5,21.5C 642.211,21.4052 647.711,21.4052 653,21.5C 653.818,27.3487 653.652,33.0154 652.5,38.5 Z"/></g>
<g><path style="opacity:0.996" fill="#f6f6f6" d="M 43.5,24.5 C 43.5651,27.4282 44.2318,30.0948 45.5,32.5C 46.2507,39.5029 47.9173,46.1696 50.5,52.5C 51.625,53.3478 51.625,54.3478 50.5,55.5C 50.9267,58.0098 51.5933,60.3432 52.5,62.5C 52.5,62.8333 52.5,63.1667 52.5,63.5C 54.1667,76.8333 55.8333,76.8333 57.5,63.5C 57.2322,61.901 57.5655,60.5676 58.5,59.5C 60.4725,56.9164 61.4725,53.9164 61.5,50.5C 61.4326,49.0413 61.7659,47.7079 62.5,46.5C 64.123,42.0223 65.4563,37.3556 66.5,32.5C 66.5,32.1667 66.5,31.8333 66.5,31.5C 67.7682,29.0948 68.4349,26.4282 68.5,23.5C 68.8807,22.0689 69.8807,21.2355 71.5,21C 76.5,20.3333 81.5,20.3333 86.5,21C 87.4158,21.2784 88.0825,21.7784 88.5,22.5C 88.2594,24.8984 88.9261,26.8984 90.5,28.5C 91.3007,30.0418 91.634,31.7085 91.5,33.5C 91.5902,37.2142 92.5902,40.5475 94.5,43.5C 94.5,43.8333 94.5,44.1667 94.5,44.5C 94.2938,47.4951 94.9605,50.1617 96.5,52.5C 96.595,54.7857 97.2616,56.7857 98.5,58.5C 98.4203,61.7814 99.087,64.7814 100.5,67.5C 101.259,74.529 102.259,74.8623 103.5,68.5C 103.366,66.7085 103.699,65.0418 104.5,63.5C 105.924,61.4855 106.59,59.1522 106.5,56.5C 106.5,56.1667 106.5,55.8333 106.5,55.5C 107.451,54.0813 107.784,52.4147 107.5,50.5C 108.913,47.7814 109.58,44.7814 109.5,41.5C 109.557,40.391 109.89,39.391 110.5,38.5C 111.967,34.2981 112.967,29.9648 113.5,25.5C 113.263,24.209 113.596,23.209 114.5,22.5C 121.833,22.5 129.167,22.5 136.5,22.5C 136.5,23.8333 136.5,25.1667 136.5,26.5C 136.717,29.4206 136.051,32.0872 134.5,34.5C 132.742,37.8544 131.742,41.521 131.5,45.5C 128.121,60.3514 124.121,75.0181 119.5,89.5C 118.076,91.5145 117.41,93.8478 117.5,96.5C 117.59,99.1522 116.924,101.485 115.5,103.5C 107.833,103.5 100.167,103.5 92.5,103.5C 91.8699,99.9523 90.8699,96.6189 89.5,93.5C 87.5497,89.0355 86.2164,84.3688 85.5,79.5C 85.2576,75.521 84.2576,71.8544 82.5,68.5C 81.5655,67.4324 81.2322,66.099 81.5,64.5C 80.9834,60.7783 80.15,57.1117 79,53.5C 76.0625,60.9124 73.8958,68.5791 72.5,76.5C 70.7891,84.0192 68.7891,91.3525 66.5,98.5C 65.4625,99.9303 64.7959,101.597 64.5,103.5C 56.8333,103.5 49.1667,103.5 41.5,103.5C 38.4076,89.5752 34.741,75.9085 30.5,62.5C 29.8902,61.609 29.5569,60.609 29.5,59.5C 29.4349,56.5718 28.7682,53.9052 27.5,51.5C 27.5905,48.8478 26.9238,46.5145 25.5,44.5C 24.596,43.791 24.2627,42.791 24.5,41.5C 24.5946,38.3033 23.9279,35.3033 22.5,32.5C 22.5,32.1667 22.5,31.8333 22.5,31.5C 22.0972,28.5145 21.0972,25.8478 19.5,23.5C 19.8807,22.0689 20.8807,21.2355 22.5,21C 29.2494,20.1227 35.9161,20.456 42.5,22C 43.2524,22.6708 43.5858,23.5041 43.5,24.5 Z"/></g>
<g><path style="opacity:0.996" fill="#fcfcfc" d="M 387.5,42.5 C 388.167,42.5 388.833,42.5 389.5,42.5C 394.515,41.9149 399.515,41.2482 404.5,40.5C 408.167,40.5 411.833,40.5 415.5,40.5C 416.568,41.4345 417.901,41.7678 419.5,41.5C 421.819,41.9925 423.819,42.9925 425.5,44.5C 425.427,46.0269 426.094,47.0269 427.5,47.5C 428.674,48.5137 429.34,49.847 429.5,51.5C 429.5,68.8333 429.5,86.1667 429.5,103.5C 423.167,103.5 416.833,103.5 410.5,103.5C 410.829,88.9903 410.496,74.6569 409.5,60.5C 409.715,58.8212 409.048,57.8212 407.5,57.5C 401.565,56.9536 395.565,56.9536 389.5,57.5C 388.833,57.5 388.167,57.5 387.5,57.5C 386.504,72.6576 386.17,87.9909 386.5,103.5C 380.167,103.5 373.833,103.5 367.5,103.5C 367.5,76.5 367.5,49.5 367.5,22.5C 373.833,22.5 380.167,22.5 386.5,22.5C 386.176,29.3543 386.509,36.021 387.5,42.5 Z"/></g>
<g><path style="opacity:0.98" fill="#fcfcfc" d="M 652.5,38.5 C 644.496,39.7826 636.496,39.7826 628.5,38.5C 627.503,59.9936 627.169,81.6602 627.5,103.5C 620.833,103.5 614.167,103.5 607.5,103.5C 607.831,81.6602 607.497,59.9936 606.5,38.5C 598.684,37.5076 590.684,37.1743 582.5,37.5C 582.5,32.5 582.5,27.5 582.5,22.5C 605.833,22.5 629.167,22.5 652.5,22.5C 652.5,27.8333 652.5,33.1667 652.5,38.5 Z"/></g>
<g><path style="opacity:0.997" fill="#f6f6f6" d="M 914.5,63.5 C 917.85,63.665 921.183,63.4983 924.5,63C 925.252,62.3292 925.586,61.4959 925.5,60.5C 925.66,58.847 926.326,57.5137 927.5,56.5C 928.906,56.0269 929.573,55.0269 929.5,53.5C 929.66,51.847 930.326,50.5137 931.5,49.5C 932.906,49.0269 933.573,48.0269 933.5,46.5C 933.932,45.2905 934.599,44.2905 935.5,43.5C 941.601,42.8716 947.601,42.2049 953.5,41.5C 955.164,40.6938 956.831,41.0271 958.5,42.5C 954.172,51.1608 949.338,59.4941 944,67.5C 942.798,69.6775 942.298,72.0108 942.5,74.5C 942.427,76.0269 943.094,77.0269 944.5,77.5C 945.674,78.5137 946.34,79.847 946.5,81.5C 946.427,83.0269 947.094,84.0269 948.5,84.5C 948.5,84.8333 948.5,85.1667 948.5,85.5C 948.427,87.0269 949.094,88.0269 950.5,88.5C 951.338,88.8417 951.672,89.5084 951.5,90.5C 951.75,92.674 952.75,94.3406 954.5,95.5C 956.33,97.8263 957.663,100.493 958.5,103.5C 955.547,105.001 952.381,105.668 949,105.5C 945.718,104.995 942.551,104.995 939.5,105.5C 935.408,103.319 932.741,99.9856 931.5,95.5C 930.744,93.3867 930.577,91.3867 931,89.5C 929.989,88.6634 928.822,88.33 927.5,88.5C 925.734,85.8121 924.067,82.9788 922.5,80C 920.19,79.5034 917.857,79.3367 915.5,79.5C 913.533,87.0968 912.866,95.0968 913.5,103.5C 907.167,103.5 900.833,103.5 894.5,103.5C 894.5,76.5 894.5,49.5 894.5,22.5C 900.833,22.5 907.167,22.5 913.5,22.5C 913.171,36.3435 913.504,50.0102 914.5,63.5 Z"/></g>
<g><path style="opacity:0.688" fill="#838383" d="M 914.5,23.5 C 914.5,36.8333 914.5,50.1667 914.5,63.5C 913.504,50.0102 913.171,36.3435 913.5,22.5C 907.167,22.5 900.833,22.5 894.5,22.5C 894.5,49.5 894.5,76.5 894.5,103.5C 900.833,103.5 907.167,103.5 913.5,103.5C 912.866,95.0968 913.533,87.0968 915.5,79.5C 915.802,87.5559 915.469,95.5559 914.5,103.5C 907.532,104.497 900.532,104.83 893.5,104.5C 892.359,77.1966 892.193,49.8633 893,22.5C 893.5,22 894,21.5 894.5,21C 900.167,20.3333 905.833,20.3333 911.5,21C 913.119,21.2355 914.119,22.0689 914.5,23.5 Z"/></g>
<g><path style="opacity:0.416" fill="#595959" d="M 88.5,22.5 C 89.7384,24.2143 90.405,26.2143 90.5,28.5C 88.9261,26.8984 88.2594,24.8984 88.5,22.5 Z"/></g>
<g><path style="opacity:0.062" fill="#141414" d="M 914.5,23.5 C 915.495,36.3226 915.829,49.3226 915.5,62.5C 919.162,62.9661 922.495,62.2994 925.5,60.5C 925.586,61.4959 925.252,62.3292 924.5,63C 921.183,63.4983 917.85,63.665 914.5,63.5C 914.5,50.1667 914.5,36.8333 914.5,23.5 Z"/></g>
<g><path style="opacity:0.153" fill="#3e3e3e" d="M 19.5,23.5 C 21.0972,25.8478 22.0972,28.5145 22.5,31.5C 20.6031,29.3025 19.6031,26.6358 19.5,23.5 Z"/></g>
<g><path style="opacity:0.314" fill="#5a5a5a" d="M 68.5,23.5 C 68.4349,26.4282 67.7682,29.0948 66.5,31.5C 66.0618,31.5654 65.7284,31.3988 65.5,31C 66.282,28.3281 67.282,25.8281 68.5,23.5 Z"/></g>
<g><path style="opacity:0.431" fill="#676767" d="M 43.5,24.5 C 45.0395,26.8383 45.7062,29.5049 45.5,32.5C 44.2318,30.0948 43.5651,27.4282 43.5,24.5 Z"/></g>
<g><path style="opacity:0.992" fill="#efefef" d="M 332.5,27.5 C 332.5,32.1667 332.5,36.8333 332.5,41.5C 337.167,41.5 341.833,41.5 346.5,41.5C 348.047,43.8066 348.713,46.4733 348.5,49.5C 348.441,51.8912 348.107,54.2246 347.5,56.5C 342.88,57.4933 338.214,57.8266 333.5,57.5C 332.342,66.9911 332.175,76.6578 333,86.5C 333.5,87 334,87.5 334.5,88C 339.489,88.4993 344.489,88.6659 349.5,88.5C 350.822,88.33 351.989,88.6634 353,89.5C 353.667,94.1667 353.667,98.8333 353,103.5C 343.345,106.788 333.511,107.288 323.5,105C 318.656,103.321 315.323,100.154 313.5,95.5C 313.567,94.0413 313.234,92.7079 312.5,91.5C 311.688,80.2425 311.188,68.9091 311,57.5C 309,57.5 307,57.5 305,57.5C 304.833,54.8333 304.667,52.1667 304.5,49.5C 304.522,46.4098 305.188,43.7432 306.5,41.5C 308.5,41.5 310.5,41.5 312.5,41.5C 312.5,39.8333 312.5,38.1667 312.5,36.5C 312.067,32.5385 313.4,29.3718 316.5,27C 321.885,26.2665 327.218,26.4332 332.5,27.5 Z"/></g>
<g><path style="opacity:0.341" fill="#4b4b4b" d="M 113.5,25.5 C 112.967,29.9648 111.967,34.2981 110.5,38.5C 109.957,38.44 109.624,38.1067 109.5,37.5C 110.544,33.2898 111.877,29.2898 113.5,25.5 Z"/></g>
<g><path style="opacity:0.039" fill="#161616" d="M 387.5,22.5 C 388.167,28.8333 388.833,35.1667 389.5,41.5C 389.5,41.8333 389.5,42.1667 389.5,42.5C 388.833,42.5 388.167,42.5 387.5,42.5C 387.5,35.8333 387.5,29.1667 387.5,22.5 Z"/></g>
<g><path style="opacity:1" fill="#0b0d10" d="M 859.5,28.5 C 864.618,30.4293 869.118,33.4293 873,37.5C 873.591,38.4835 873.257,39.1501 872,39.5C 870.323,38.3922 868.823,38.3922 867.5,39.5C 849.995,37.1799 839.328,44.6799 835.5,62C 836.287,64.0989 836.62,66.2655 836.5,68.5C 835.341,71.2527 835.841,73.9194 838,76.5C 844.948,86.8985 854.448,91.0652 866.5,89C 865.552,88.5172 864.552,88.3505 863.5,88.5C 868.009,87.9362 872.175,86.2695 876,83.5C 876.692,84.0253 877.192,84.6919 877.5,85.5C 874.376,90.6261 870.043,94.2928 864.5,96.5C 854.264,98.9755 843.931,99.1422 833.5,97C 831.833,96.1667 830.167,95.3333 828.5,94.5C 827.893,94.6236 827.56,94.9569 827.5,95.5C 824.5,93.8333 822.167,91.5 820.5,88.5C 814.922,82.2827 811.755,74.9494 811,66.5C 810.536,67.0944 810.369,67.7611 810.5,68.5C 809.167,65.1667 809.167,61.8333 810.5,58.5C 812.239,53.2532 814.572,47.5865 817.5,41.5C 817.833,39.1667 819.167,37.8333 821.5,37.5C 827.02,33.462 832.353,30.1287 837.5,27.5C 838.772,26.5657 840.272,25.899 842,25.5C 845.712,26.769 849.378,26.769 853,25.5C 855.415,26.1319 857.582,27.1319 859.5,28.5 Z"/></g>
<g><path style="opacity:0.902" fill="#3f4042" d="M 837.5,27.5 C 832.353,30.1287 827.02,33.462 821.5,37.5C 825.436,32.1849 830.77,28.8516 837.5,27.5 Z"/></g>
<g><path style="opacity:0.322" fill="#515151" d="M 66.5,32.5 C 65.4563,37.3556 64.123,42.0223 62.5,46.5C 62.0618,46.5654 61.7284,46.3988 61.5,46C 62.8938,41.9283 64.0605,37.7616 65,33.5C 65.3826,32.944 65.8826,32.6107 66.5,32.5 Z"/></g>
<g><path style="opacity:0.098" fill="#2b2b2b" d="M 22.5,32.5 C 23.9279,35.3033 24.5946,38.3033 24.5,41.5C 23.5156,38.9487 22.5156,36.2821 21.5,33.5C 21.6236,32.8933 21.9569,32.56 22.5,32.5 Z"/></g>
<g><path style="opacity:0.62" fill="#848484" d="M 387.5,22.5 C 387.5,29.1667 387.5,35.8333 387.5,42.5C 386.509,36.021 386.176,29.3543 386.5,22.5C 380.167,22.5 373.833,22.5 367.5,22.5C 367.5,49.5 367.5,76.5 367.5,103.5C 373.833,103.5 380.167,103.5 386.5,103.5C 386.17,87.9909 386.504,72.6576 387.5,57.5C 387.5,58.5 387.5,59.5 387.5,60.5C 388.766,75.1136 388.766,89.7803 387.5,104.5C 383.921,104.745 380.254,105.078 376.5,105.5C 372.966,104.869 369.466,104.202 366,103.5C 365.18,76.6366 365.347,49.8033 366.5,23C 366.905,22.0546 367.572,21.3879 368.5,21C 374.5,20.3333 380.5,20.3333 386.5,21C 387.056,21.3826 387.389,21.8826 387.5,22.5 Z"/></g>
<g><path style="opacity:0.616" fill="#4f4f4f" d="M 45.5,32.5 C 47.7683,38.9064 49.435,45.5731 50.5,52.5C 47.9173,46.1696 46.2507,39.5029 45.5,32.5 Z"/></g>
<g><path style="opacity:0.416" fill="#4d4d4d" d="M 91.5,33.5 C 93.1007,36.5502 94.1007,39.8835 94.5,43.5C 92.5902,40.5475 91.5902,37.2142 91.5,33.5 Z"/></g>
<g><path style="opacity:0.024" fill="#2c2c2c" d="M 134.5,34.5 C 134.258,38.479 133.258,42.1456 131.5,45.5C 131.742,41.521 132.742,37.8544 134.5,34.5 Z"/></g>
<g><path style="opacity:0.091" fill="#555555" d="M 628.5,38.5 C 628.579,55.2608 628.913,71.9275 629.5,88.5C 628.876,93.9648 628.21,99.2981 627.5,104.5C 627.5,104.167 627.5,103.833 627.5,103.5C 627.169,81.6602 627.503,59.9936 628.5,38.5 Z"/></g>
<g><path style="opacity:1" fill="#28282a" d="M 867.5,39.5 C 868.823,38.3922 870.323,38.3922 872,39.5C 873.257,39.1501 873.591,38.4835 873,37.5C 869.118,33.4293 864.618,30.4293 859.5,28.5C 860.117,28.3893 860.617,28.056 861,27.5C 868.687,30.5371 874.353,35.5371 878,42.5C 877.439,43.0219 876.772,43.3552 876,43.5C 873.243,41.9411 870.41,40.6078 867.5,39.5 Z"/></g>
<g><path style="opacity:0.992" fill="#f8f8f8" d="M 196.5,40.5 C 197.919,41.4511 199.585,41.7845 201.5,41.5C 202.609,41.5569 203.609,41.8902 204.5,42.5C 206.118,44.785 208.118,46.785 210.5,48.5C 211.924,50.5145 212.59,52.8478 212.5,55.5C 212.5,63.8333 212.5,72.1667 212.5,80.5C 199.163,80.3334 185.829,80.5001 172.5,81C 171.199,82.6155 171.199,84.1155 172.5,85.5C 172.157,87.4832 172.824,88.8166 174.5,89.5C 178.733,90.7943 183.066,90.7943 187.5,89.5C 188.833,89.5 190.167,89.5 191.5,89.5C 195.481,88.9791 199.481,88.6458 203.5,88.5C 204.5,88.5 205.5,88.5 206.5,88.5C 207.833,88.5 209.167,88.5 210.5,88.5C 210.783,92.0528 211.116,96.0528 211.5,100.5C 211.547,102.038 210.88,103.038 209.5,103.5C 204.405,103.221 199.405,103.555 194.5,104.5C 183.856,106.688 173.19,106.854 162.5,105C 156.364,102.377 152.697,97.8772 151.5,91.5C 151.26,77.8082 151.593,64.1415 152.5,50.5C 153.906,50.0269 154.573,49.0269 154.5,47.5C 156.167,46.5 157.5,45.1667 158.5,43.5C 160.027,43.573 161.027,42.9063 161.5,41.5C 163.441,41.1307 165.275,40.464 167,39.5C 176.75,40.4856 186.584,40.819 196.5,40.5 Z M 174.5,55.5 C 179.927,55.2175 185.26,55.5509 190.5,56.5C 191.324,59.7644 191.658,63.0977 191.5,66.5C 185.5,66.5 179.5,66.5 173.5,66.5C 172.348,62.7452 172.682,59.0785 174.5,55.5 Z"/></g>
<g><path style="opacity:0.192" fill="#747474" d="M 201.5,41.5 C 199.585,41.7845 197.919,41.4511 196.5,40.5C 196.435,40.0618 196.601,39.7284 197,39.5C 198.622,40.0989 200.122,40.7656 201.5,41.5 Z"/></g>
<g><path style="opacity:0.992" fill="#f0f0f0" d="M 269.5,102.5 C 269.762,101.022 269.429,99.6888 268.5,98.5C 267.893,98.6236 267.56,98.9569 267.5,99.5C 263.766,102.526 259.432,104.192 254.5,104.5C 250.519,105.021 246.519,105.354 242.5,105.5C 234.202,105.274 228.702,101.274 226,93.5C 224.962,86.6285 225.462,79.9618 227.5,73.5C 228.906,73.0269 229.573,72.0269 229.5,70.5C 231.654,67.4011 234.654,65.7344 238.5,65.5C 248.348,65.8271 258.014,65.4938 267.5,64.5C 267.5,63.8333 267.5,63.1667 267.5,62.5C 267.822,60.2776 267.155,58.4443 265.5,57C 254.163,56.6334 242.829,56.8001 231.5,57.5C 231.334,52.8215 231.501,48.1548 232,43.5C 233.011,42.6634 234.178,42.33 235.5,42.5C 241.373,42.404 247.04,41.7373 252.5,40.5C 260.813,39.7142 269.147,39.8809 277.5,41C 282.383,42.6832 285.883,45.8499 288,50.5C 289.113,60.11 289.613,69.7767 289.5,79.5C 289.167,87.8333 288.833,96.1667 288.5,104.5C 286.894,105.077 285.228,105.41 283.5,105.5C 278.374,105.416 273.707,104.416 269.5,102.5 Z M 267.5,80.5 C 266.549,81.9187 266.216,83.5853 266.5,85.5C 262.952,86.1301 259.619,87.1301 256.5,88.5C 254.543,87.9104 252.376,87.9104 250,88.5C 247.446,86.3968 246.946,83.8968 248.5,81C 251.88,79.9158 255.38,79.4158 259,79.5C 262.021,79.5022 264.854,79.8356 267.5,80.5 Z"/></g>
<g><path style="opacity:0.047" fill="#141414" d="M 312.5,36.5 C 312.5,38.1667 312.5,39.8333 312.5,41.5C 310.5,41.5 308.5,41.5 306.5,41.5C 307.919,40.5489 309.585,40.2155 311.5,40.5C 311.232,38.901 311.566,37.5676 312.5,36.5 Z"/></g>
<g><path style="opacity:0.06" fill="#2d2d2d" d="M 332.5,27.5 C 333.324,31.3123 333.824,35.3123 334,39.5C 338.268,40.1401 342.435,40.8067 346.5,41.5C 341.833,41.5 337.167,41.5 332.5,41.5C 332.5,36.8333 332.5,32.1667 332.5,27.5 Z"/></g>
<g><path style="opacity:0.341" fill="#5c5c5c" d="M 404.5,40.5 C 399.515,41.2482 394.515,41.9149 389.5,42.5C 389.5,42.1667 389.5,41.8333 389.5,41.5C 393.639,40.7944 397.806,40.1277 402,39.5C 403.07,39.528 403.903,39.8614 404.5,40.5 Z"/></g>
<g><path style="opacity:0.431" fill="#6a6a6a" d="M 419.5,41.5 C 417.901,41.7678 416.568,41.4345 415.5,40.5C 415.435,40.0618 415.601,39.7284 416,39.5C 417.302,40.0848 418.469,40.7515 419.5,41.5 Z"/></g>
<g><path style="opacity:0.094" fill="#7e7e7e" d="M 461.5,40.5 C 459.698,41.4582 457.698,42.1249 455.5,42.5C 455.611,41.8826 455.944,41.3826 456.5,41C 458.101,40.7266 459.601,40.2266 461,39.5C 461.399,39.7284 461.565,40.0618 461.5,40.5 Z"/></g>
<g><path style="opacity:0.988" fill="#f8f8f8" d="M 501.5,44.5 C 504.219,47.2704 505.885,50.6037 506.5,54.5C 506.5,63.1667 506.5,71.8333 506.5,80.5C 492.791,79.8519 479.458,80.5186 466.5,82.5C 466.629,84.2161 466.962,85.8828 467.5,87.5C 467.414,88.4959 467.748,89.3292 468.5,90C 472.358,90.8099 476.024,90.6433 479.5,89.5C 479.833,89.5 480.167,89.5 480.5,89.5C 486.523,89.498 492.523,89.1646 498.5,88.5C 499.167,88.5 499.833,88.5 500.5,88.5C 501.833,88.5 503.167,88.5 504.5,88.5C 504.5,93.1667 504.5,97.8333 504.5,102.5C 504.5,103.167 504.833,103.5 505.5,103.5C 503.412,103.865 501.079,103.865 498.5,103.5C 494.629,103.185 490.962,103.518 487.5,104.5C 477.523,106.453 467.523,106.62 457.5,105C 452.034,103.287 448.367,99.7868 446.5,94.5C 446.232,79.4712 446.566,64.4712 447.5,49.5C 448.906,49.0269 449.573,48.0269 449.5,46.5C 451.147,44.6736 453.147,43.3403 455.5,42.5C 457.698,42.1249 459.698,41.4582 461.5,40.5C 471.22,40.8076 480.887,40.4743 490.5,39.5C 494.571,40.3702 498.237,42.0368 501.5,44.5 Z M 469.5,55.5 C 474.812,55.5407 479.812,55.874 484.5,56.5C 485.479,59.6248 485.813,62.9581 485.5,66.5C 479.463,66.8293 473.463,66.4959 467.5,65.5C 467.521,63.3984 467.187,61.2317 466.5,59C 467.163,57.4815 468.163,56.3149 469.5,55.5 Z"/></g>
<g><path style="opacity:0.968" fill="#fbfbfb" d="M 556.5,40.5 C 559.833,40.5 563.167,40.5 566.5,40.5C 566.5,46.5 566.5,52.5 566.5,58.5C 558.476,57.8704 550.81,58.8704 543.5,61.5C 542.504,61.4142 541.671,61.7476 541,62.5C 540.5,76.496 540.333,90.496 540.5,104.5C 533.833,104.5 527.167,104.5 520.5,104.5C 520.5,83.8333 520.5,63.1667 520.5,42.5C 526.5,42.5 532.5,42.5 538.5,42.5C 538.263,43.791 538.596,44.791 539.5,45.5C 540.293,49.1654 541.626,49.1654 543.5,45.5C 545.05,44.5592 546.716,43.8925 548.5,43.5C 550.153,43.3404 551.486,42.6737 552.5,41.5C 553.568,40.5655 554.901,40.2322 556.5,40.5 Z"/></g>
<g><path style="opacity:0.948" fill="#fafafa" d="M 690.5,85.5 C 690.5,91.5 690.5,97.5 690.5,103.5C 683.833,103.5 677.167,103.5 670.5,103.5C 670.53,83.8945 670.197,64.8945 669.5,46.5C 669.5,44.8333 669.5,43.1667 669.5,41.5C 671.5,41.5 673.5,41.5 675.5,41.5C 679.514,41.3345 683.514,41.5012 687.5,42C 688.964,43.864 689.964,46.0306 690.5,48.5C 695.874,44.5633 701.707,41.5633 708,39.5C 710.77,40.3479 713.603,40.6813 716.5,40.5C 716.5,46.5 716.5,52.5 716.5,58.5C 711.489,58.3341 706.489,58.5007 701.5,59C 698.018,59.4888 694.851,60.6555 692,62.5C 691.732,70.2 691.232,77.8667 690.5,85.5 Z"/></g>
<g><path style="opacity:0.392" fill="#5c5c5c" d="M 771.5,40.5 C 762.918,41.4699 754.251,41.8032 745.5,41.5C 751.988,40.5561 758.654,39.8894 765.5,39.5C 767.696,39.5046 769.696,39.838 771.5,40.5 Z"/></g>
<g><path style="opacity:0.993" fill="#f5f5f5" d="M 792.5,50.5 C 792.232,52.099 792.566,53.4324 793.5,54.5C 794.82,70.8631 794.82,87.1965 793.5,103.5C 787.077,103.791 780.744,103.458 774.5,102.5C 774.5,101.833 774.5,101.167 774.5,100.5C 774.289,98.5759 773.623,98.2426 772.5,99.5C 770.887,99.9443 769.72,100.944 769,102.5C 768.667,102.167 768.333,101.833 768,101.5C 766.416,102.861 764.582,103.528 762.5,103.5C 761.209,103.263 760.209,103.596 759.5,104.5C 759.167,104.5 758.833,104.5 758.5,104.5C 752.131,104.653 745.797,104.32 739.5,103.5C 734.969,100.794 732.135,96.7941 731,91.5C 730.333,86.8333 730.333,82.1667 731,77.5C 731.757,75.6854 732.59,74.0188 733.5,72.5C 734.906,72.0269 735.573,71.0269 735.5,69.5C 736.29,68.5987 737.29,67.9321 738.5,67.5C 740.153,67.3404 741.486,66.6737 742.5,65.5C 742.833,65.5 743.167,65.5 743.5,65.5C 753.681,65.8274 763.681,65.494 773.5,64.5C 773.662,62.4727 773.495,60.4727 773,58.5C 772.583,57.244 771.75,56.5774 770.5,56.5C 764.167,56.5 757.833,56.5 751.5,56.5C 747.785,56.423 744.119,56.7564 740.5,57.5C 739.5,57.5 738.5,57.5 737.5,57.5C 737.221,52.4053 737.555,47.4053 738.5,42.5C 740.764,41.7814 743.097,41.448 745.5,41.5C 754.251,41.8032 762.918,41.4699 771.5,40.5C 781.215,38.1911 788.215,41.5244 792.5,50.5 Z M 771.5,79.5 C 771.834,82.188 771.168,84.5214 769.5,86.5C 767.214,86.595 765.214,87.2616 763.5,88.5C 760.518,88.1727 757.685,88.1727 755,88.5C 751.51,85.3263 751.677,82.4929 755.5,80C 760.823,79.5006 766.156,79.334 771.5,79.5 Z"/></g>
<g><path style="opacity:0.51" fill="#737373" d="M 252.5,40.5 C 247.04,41.7373 241.373,42.404 235.5,42.5C 240.916,40.8827 246.583,40.216 252.5,40.5 Z"/></g>
<g><path style="opacity:0.069" fill="#909090" d="M 539.5,44.5 C 539.5,44.8333 539.5,45.1667 539.5,45.5C 538.596,44.791 538.263,43.791 538.5,42.5C 532.5,42.5 526.5,42.5 520.5,42.5C 520.5,42.1667 520.5,41.8333 520.5,41.5C 521.449,40.8476 522.615,40.5143 524,40.5C 529.521,40.9888 535.021,41.6555 540.5,42.5C 540.137,43.1835 539.804,43.8501 539.5,44.5 Z"/></g>
<g><path style="opacity:0.008" fill="#0c0c0c" d="M 675.5,41.5 C 673.5,41.5 671.5,41.5 669.5,41.5C 669.5,43.1667 669.5,44.8333 669.5,46.5C 668.539,44.7354 668.205,42.7354 668.5,40.5C 671.059,40.1984 673.393,40.5318 675.5,41.5 Z"/></g>
<g><path style="opacity:0.529" fill="#828282" d="M 953.5,41.5 C 947.601,42.2049 941.601,42.8716 935.5,43.5C 936.23,41.955 937.563,41.1216 939.5,41C 944.624,40.3342 949.291,40.5009 953.5,41.5 Z"/></g>
<g><path style="opacity:0.275" fill="#616161" d="M 161.5,41.5 C 161.027,42.9063 160.027,43.573 158.5,43.5C 158.973,42.0937 159.973,41.427 161.5,41.5 Z"/></g>
<g><path style="opacity:0.137" fill="#5d5d5d" d="M 552.5,41.5 C 551.486,42.6737 550.153,43.3404 548.5,43.5C 549.287,41.8958 550.62,41.2291 552.5,41.5 Z"/></g>
<g><path style="opacity:0.169" fill="#454545" d="M 158.5,43.5 C 157.5,45.1667 156.167,46.5 154.5,47.5C 154.833,45.1667 156.167,43.8333 158.5,43.5 Z"/></g>
<g><path style="opacity:0.392" fill="#4c4c4c" d="M 109.5,41.5 C 109.58,44.7814 108.913,47.7814 107.5,50.5C 107.42,47.2186 108.087,44.2186 109.5,41.5 Z"/></g>
<g><path style="opacity:0.235" fill="#565656" d="M 425.5,44.5 C 426.906,44.9731 427.573,45.9731 427.5,47.5C 426.094,47.0269 425.427,46.0269 425.5,44.5 Z"/></g>
<g><path style="opacity:0.02" fill="#282828" d="M 25.5,44.5 C 26.9238,46.5145 27.5905,48.8478 27.5,51.5C 26.0762,49.4855 25.4095,47.1522 25.5,44.5 Z"/></g>
<g><path style="opacity:0.192" fill="#555555" d="M 204.5,42.5 C 207.522,43.5222 209.522,45.5222 210.5,48.5C 208.118,46.785 206.118,44.785 204.5,42.5 Z"/></g>
<g><path style="opacity:0.02" fill="#191919" d="M 539.5,44.5 C 540.441,47.1251 541.607,47.1251 543,44.5C 543.399,44.7284 543.565,45.0618 543.5,45.5C 541.626,49.1654 540.293,49.1654 539.5,45.5C 539.5,45.1667 539.5,44.8333 539.5,44.5 Z"/></g>
<g><path style="opacity:0.253" fill="#494949" d="M 738.5,42.5 C 737.555,47.4053 737.221,52.4053 737.5,57.5C 737.565,57.9382 737.399,58.2716 737,58.5C 735.056,53.1934 735.056,47.86 737,42.5C 737.69,41.2617 738.19,41.2617 738.5,42.5 Z"/></g>
<g><path style="opacity:0.012" fill="#616161" d="M 449.5,46.5 C 449.573,48.0269 448.906,49.0269 447.5,49.5C 447.427,47.9731 448.094,46.9731 449.5,46.5 Z"/></g>
<g><path style="opacity:0.025" fill="#131313" d="M 501.5,44.5 C 505.911,46.456 508.244,49.956 508.5,55C 508.43,55.7648 508.097,56.2648 507.5,56.5C 507.672,55.5084 507.338,54.8417 506.5,54.5C 505.885,50.6037 504.219,47.2704 501.5,44.5 Z"/></g>
<g><path style="opacity:0.075" fill="#333333" d="M 933.5,46.5 C 933.573,48.0269 932.906,49.0269 931.5,49.5C 931.427,47.9731 932.094,46.9731 933.5,46.5 Z"/></g>
<g><path style="opacity:0.075" fill="#414141" d="M 154.5,47.5 C 154.573,49.0269 153.906,50.0269 152.5,50.5C 152.427,48.9731 153.094,47.9731 154.5,47.5 Z"/></g>
<g><path style="opacity:0.906" fill="#363738" d="M 817.5,41.5 C 814.572,47.5865 812.239,53.2532 810.5,58.5C 810.387,51.7383 812.72,46.0716 817.5,41.5 Z"/></g>
<g><path style="opacity:0.561" fill="#5c5c5c" d="M 94.5,44.5 C 96.2487,47.0449 96.9154,49.7116 96.5,52.5C 94.9605,50.1617 94.2938,47.4951 94.5,44.5 Z"/></g>
<g><path style="opacity:0.757" fill="#636363" d="M 61.5,50.5 C 61.4725,53.9164 60.4725,56.9164 58.5,59.5C 58.7475,56.1461 59.7475,53.1461 61.5,50.5 Z"/></g>
<g><path style="opacity:0.498" fill="#696969" d="M 792.5,50.5 C 793.249,51.531 793.915,52.6976 794.5,54C 794.272,54.3988 793.938,54.5654 793.5,54.5C 792.566,53.4324 792.232,52.099 792.5,50.5 Z"/></g>
<g><path style="opacity:0.016" fill="#252525" d="M 27.5,51.5 C 28.7682,53.9052 29.4349,56.5718 29.5,59.5C 27.9605,57.1617 27.2938,54.4951 27.5,51.5 Z"/></g>
<g><path style="opacity:0.027" fill="#202020" d="M 96.5,52.5 C 98.0739,54.1016 98.7406,56.1016 98.5,58.5C 97.2616,56.7857 96.595,54.7857 96.5,52.5 Z"/></g>
<g><path style="opacity:0.498" fill="#5a5a5a" d="M 107.5,50.5 C 107.784,52.4147 107.451,54.0813 106.5,55.5C 106.062,55.5654 105.728,55.3988 105.5,55C 106.099,53.3775 106.766,51.8775 107.5,50.5 Z"/></g>
<g><path style="opacity:0.085" fill="#ababab" d="M 469.5,55.5 C 473.646,54.353 477.98,54.1864 482.5,55C 483.416,55.2784 484.082,55.7784 484.5,56.5C 479.812,55.874 474.812,55.5407 469.5,55.5 Z"/></g>
<g><path style="opacity:0.322" fill="#9f9f9f" d="M 606.5,38.5 C 607.497,59.9936 607.831,81.6602 607.5,103.5C 614.167,103.5 620.833,103.5 627.5,103.5C 627.5,103.833 627.5,104.167 627.5,104.5C 621.651,105.664 615.651,105.664 609.5,104.5C 608.5,104.5 607.5,104.5 606.5,104.5C 605.167,96.1667 605.167,87.8333 606.5,79.5C 606.5,65.8333 606.5,52.1667 606.5,38.5 Z"/></g>
<g><path style="opacity:0.141" fill="#4b4b4b" d="M 929.5,53.5 C 929.573,55.0269 928.906,56.0269 927.5,56.5C 927.427,54.9731 928.094,53.9731 929.5,53.5 Z"/></g>
<g><path style="opacity:0.031" fill="#3c3c3c" d="M 751.5,56.5 C 747.906,58.2697 744.24,58.6031 740.5,57.5C 744.119,56.7564 747.785,56.423 751.5,56.5 Z"/></g>
<g><path style="opacity:0.047" fill="#343434" d="M 50.5,55.5 C 52.0108,56.9575 53.0108,58.7908 53.5,61C 52.944,61.3826 52.6107,61.8826 52.5,62.5C 51.5933,60.3432 50.9267,58.0098 50.5,55.5 Z"/></g>
<g><path style="opacity:0.027" fill="#2f2f2f" d="M 81.5,64.5 C 80.3995,62.7226 79.5662,60.7226 79,58.5C 78.6667,58.8333 78.3333,59.1667 78,59.5C 76.6091,65.4284 74.7758,71.095 72.5,76.5C 73.8958,68.5791 76.0625,60.9124 79,53.5C 80.15,57.1117 80.9834,60.7783 81.5,64.5 Z"/></g>
<g><path style="opacity:0.016" fill="#141414" d="M 387.5,57.5 C 388.167,57.5 388.833,57.5 389.5,57.5C 389.068,58.7095 388.401,59.7095 387.5,60.5C 387.5,59.5 387.5,58.5 387.5,57.5 Z"/></g>
<g><path style="opacity:0.165" fill="#444444" d="M 556.5,40.5 C 560.233,39.179 564.066,39.179 568,40.5C 567.987,46.8181 567.821,53.1514 567.5,59.5C 559.412,59.3156 551.412,59.9823 543.5,61.5C 550.81,58.8704 558.476,57.8704 566.5,58.5C 566.5,52.5 566.5,46.5 566.5,40.5C 563.167,40.5 559.833,40.5 556.5,40.5 Z"/></g>
<g><path style="opacity:0.282" fill="#4c4c4c" d="M 770.5,56.5 C 771.75,56.5774 772.583,57.244 773,58.5C 773.495,60.4727 773.662,62.4727 773.5,64.5C 772.167,64.5 770.833,64.5 769.5,64.5C 770.635,63.5255 771.635,62.3588 772.5,61C 771.733,59.5295 771.067,58.0295 770.5,56.5 Z"/></g>
<g><path style="opacity:0.455" fill="#4d4d4d" d="M 98.5,58.5 C 99.913,61.2186 100.58,64.2186 100.5,67.5C 99.087,64.7814 98.4203,61.7814 98.5,58.5 Z"/></g>
<g><path style="opacity:0.475" fill="#656565" d="M 106.5,56.5 C 106.59,59.1522 105.924,61.4855 104.5,63.5C 104.171,60.7718 104.837,58.4385 106.5,56.5 Z"/></g>
<g><path style="opacity:0.017" fill="#0b0b0b" d="M 407.5,57.5 C 409.048,57.8212 409.715,58.8212 409.5,60.5C 409.5,74.5 409.5,88.5 409.5,102.5C 408.818,87.5981 408.152,72.5981 407.5,57.5 Z"/></g>
<g><path style="opacity:0.357" fill="#696969" d="M 174.5,55.5 C 172.682,59.0785 172.348,62.7452 173.5,66.5C 172.275,65.8478 171.608,64.6811 171.5,63C 171.452,59.9564 172.452,57.4564 174.5,55.5 Z"/></g>
<g><path style="opacity:0.125" fill="#656565" d="M 190.5,56.5 C 191.117,56.6107 191.617,56.944 192,57.5C 192.805,60.6965 192.638,63.6965 191.5,66.5C 191.658,63.0977 191.324,59.7644 190.5,56.5 Z"/></g>
<g><path style="opacity:0.039" fill="#111111" d="M 267.5,62.5 C 267.5,63.1667 267.5,63.8333 267.5,64.5C 266.167,64.5 264.833,64.5 263.5,64.5C 264.671,63.6554 266.005,62.9887 267.5,62.5 Z"/></g>
<g><path style="opacity:0.541" fill="#8f8f8f" d="M 429.5,51.5 C 430.314,53.631 430.814,55.9644 431,58.5C 431.786,73.8653 431.619,89.1986 430.5,104.5C 424.203,105.539 417.87,105.706 411.5,105C 410.244,104.583 409.577,103.75 409.5,102.5C 409.5,88.5 409.5,74.5 409.5,60.5C 410.496,74.6569 410.829,88.9903 410.5,103.5C 416.833,103.5 423.167,103.5 429.5,103.5C 429.5,86.1667 429.5,68.8333 429.5,51.5 Z"/></g>
<g><path style="opacity:0.035" fill="#7f7f7f" d="M 506.5,54.5 C 507.338,54.8417 507.672,55.5084 507.5,56.5C 507.797,65.1738 507.797,73.5072 507.5,81.5C 507.167,81.5 506.833,81.5 506.5,81.5C 506.5,81.1667 506.5,80.8333 506.5,80.5C 506.5,71.8333 506.5,63.1667 506.5,54.5 Z"/></g>
<g><path style="opacity:0.026" fill="#181818" d="M 581.5,38.5 C 589.833,38.5 598.167,38.5 606.5,38.5C 606.5,52.1667 606.5,65.8333 606.5,79.5C 605.816,66.9614 605.149,54.2947 604.5,41.5C 604.709,40.914 605.043,40.414 605.5,40C 597.323,39.8292 589.323,39.3292 581.5,38.5 Z"/></g>
<g><path style="opacity:0.585" fill="#bbbbbb" d="M 263.5,64.5 C 264.833,64.5 266.167,64.5 267.5,64.5C 258.014,65.4938 248.348,65.8271 238.5,65.5C 239.531,64.7515 240.698,64.0848 242,63.5C 249.079,64.4799 256.245,64.8132 263.5,64.5 Z"/></g>
<g><path style="opacity:0.546" fill="#b1b1b1" d="M 769.5,64.5 C 770.833,64.5 772.167,64.5 773.5,64.5C 763.681,65.494 753.681,65.8274 743.5,65.5C 744.261,64.6091 745.261,63.9424 746.5,63.5C 753.897,64.3433 761.563,64.6767 769.5,64.5 Z"/></g>
<g><path style="opacity:0.022" fill="#2a2a2a" d="M 30.5,62.5 C 34.741,75.9085 38.4076,89.5752 41.5,103.5C 36.6873,89.8999 33.0207,76.2332 30.5,62.5 Z"/></g>
<g><path style="opacity:0.306" fill="#585858" d="M 742.5,65.5 C 741.486,66.6737 740.153,67.3404 738.5,67.5C 739.315,66.1634 740.482,65.1634 742,64.5C 742.399,64.7284 742.565,65.0618 742.5,65.5 Z"/></g>
<g><path style="opacity:0.114" fill="#7f7f7f" d="M 447.5,49.5 C 446.566,64.4712 446.232,79.4712 446.5,94.5C 444.97,87.9031 444.303,81.0697 444.5,74C 444.667,69.1667 444.833,64.3333 445,59.5C 445.149,55.8675 445.982,52.5341 447.5,49.5 Z"/></g>
<g><path style="opacity:0.006" fill="#1a1a1a" d="M 100.5,67.5 C 101.391,68.1098 102.391,68.4431 103.5,68.5C 102.259,74.8623 101.259,74.529 100.5,67.5 Z"/></g>
<g><path style="opacity:0.024" fill="#414141" d="M 52.5,63.5 C 53.793,64.842 54.6264,66.5087 55,68.5C 55.7568,66.6854 56.5902,65.0188 57.5,63.5C 55.8333,76.8333 54.1667,76.8333 52.5,63.5 Z"/></g>
<g><path style="opacity:0.022" fill="#282828" d="M 82.5,68.5 C 84.2576,71.8544 85.2576,75.521 85.5,79.5C 83.7424,76.1456 82.7424,72.479 82.5,68.5 Z"/></g>
<g><path style="opacity:0.459" fill="#656565" d="M 735.5,69.5 C 735.573,71.0269 734.906,72.0269 733.5,72.5C 733.427,70.9731 734.094,69.9731 735.5,69.5 Z"/></g>
<g><path style="opacity:0.063" fill="#373737" d="M 229.5,70.5 C 229.573,72.0269 228.906,73.0269 227.5,73.5C 227.427,71.9731 228.094,70.9731 229.5,70.5 Z"/></g>
<g><path style="opacity:0.068" fill="#262626" d="M 520.5,41.5 C 520.5,41.8333 520.5,42.1667 520.5,42.5C 520.5,63.1667 520.5,83.8333 520.5,104.5C 519.782,97.8099 519.115,90.9766 518.5,84C 519.143,69.6929 519.809,55.5262 520.5,41.5 Z"/></g>
<g><path style="opacity:0.146" fill="#787878" d="M 543.5,61.5 C 542.645,62.5307 541.978,63.6974 541.5,65C 541.718,75.9932 541.718,87.4932 541.5,99.5C 541.784,101.415 541.451,103.081 540.5,104.5C 540.333,90.496 540.5,76.496 541,62.5C 541.671,61.7476 542.504,61.4142 543.5,61.5 Z"/></g>
<g><path style="opacity:0.047" fill="#121212" d="M 152.5,50.5 C 151.593,64.1415 151.26,77.8082 151.5,91.5C 150.34,79.3403 150.173,67.0069 151,54.5C 151.21,52.9419 151.71,51.6085 152.5,50.5 Z"/></g>
<g><path style="opacity:0.792" fill="#303133" d="M 836.5,68.5 C 840.552,81.7054 849.552,88.3721 863.5,88.5C 864.552,88.3505 865.552,88.5172 866.5,89C 854.448,91.0652 844.948,86.8985 838,76.5C 835.841,73.9194 835.341,71.2527 836.5,68.5 Z"/></g>
<g><path style="opacity:0.129" fill="#4a4a4a" d="M 942.5,74.5 C 943.906,74.9731 944.573,75.9731 944.5,77.5C 943.094,77.0269 942.427,76.0269 942.5,74.5 Z"/></g>
<g><path style="opacity:0.106" fill="#373839" d="M 820.5,88.5 C 814.041,83.5828 810.708,76.9161 810.5,68.5C 810.369,67.7611 810.536,67.0944 811,66.5C 811.755,74.9494 814.922,82.2827 820.5,88.5 Z"/></g>
<g><path style="opacity:0.576" fill="#9b9b9b" d="M 212.5,55.5 C 213.166,59.6533 213.499,63.9866 213.5,68.5C 213.641,73.3399 213.141,78.0065 212,82.5C 199.242,81.3449 186.409,81.1783 173.5,82C 172.663,83.0113 172.33,84.1779 172.5,85.5C 171.199,84.1155 171.199,82.6155 172.5,81C 185.829,80.5001 199.163,80.3334 212.5,80.5C 212.5,72.1667 212.5,63.8333 212.5,55.5 Z"/></g>
<g><path style="opacity:0.239" fill="#bbbbbb" d="M 506.5,80.5 C 506.5,80.8333 506.5,81.1667 506.5,81.5C 493.237,81.2102 479.904,81.5435 466.5,82.5C 479.458,80.5186 492.791,79.8519 506.5,80.5 Z"/></g>
<g><path style="opacity:0.004" fill="#000000" d="M 507.5,81.5 C 508.833,82.1667 508.833,82.1667 507.5,81.5 Z"/></g>
<g><path style="opacity:0.078" fill="#2f2f2f" d="M 946.5,81.5 C 947.906,81.9731 948.573,82.9731 948.5,84.5C 947.094,84.0269 946.427,83.0269 946.5,81.5 Z"/></g>
<g><path style="opacity:0.075" fill="#181818" d="M 267.5,80.5 C 267.5,82.5 267.5,84.5 267.5,86.5C 263.915,87.5828 260.249,88.2494 256.5,88.5C 259.619,87.1301 262.952,86.1301 266.5,85.5C 266.216,83.5853 266.549,81.9187 267.5,80.5 Z"/></g>
<g><path style="opacity:0.026" fill="#050505" d="M 771.5,79.5 C 772.833,81.8333 772.833,84.1667 771.5,86.5C 770.833,86.5 770.167,86.5 769.5,86.5C 771.168,84.5214 771.834,82.188 771.5,79.5 Z"/></g>
<g><path style="opacity:0.007" fill="#121212" d="M 203.5,87.5 C 206.012,86.1326 208.345,86.466 210.5,88.5C 209.167,88.5 207.833,88.5 206.5,88.5C 205.791,87.596 204.791,87.2627 203.5,87.5 Z"/></g>
<g><path style="opacity:0.014" fill="#1f1f1f" d="M 505.5,103.5 C 504.833,103.5 504.5,103.167 504.5,102.5C 504.5,97.8333 504.5,93.1667 504.5,88.5C 503.167,88.5 501.833,88.5 500.5,88.5C 499.833,87.1667 499.167,87.1667 498.5,88.5C 492.523,89.1646 486.523,89.498 480.5,89.5C 488.619,87.7022 496.952,86.8688 505.5,87C 505.788,92.8621 505.788,98.3621 505.5,103.5 Z"/></g>
<g><path style="opacity:0.022" fill="#171717" d="M 203.5,87.5 C 203.5,87.8333 203.5,88.1667 203.5,88.5C 199.481,88.6458 195.481,88.9791 191.5,89.5C 195.183,87.7501 199.183,87.0834 203.5,87.5 Z"/></g>
<g><path style="opacity:0.06" fill="#373737" d="M 333.5,57.5 C 333.052,67.2726 333.552,76.9393 335,86.5C 339.934,87.1437 344.767,87.8103 349.5,88.5C 344.489,88.6659 339.489,88.4993 334.5,88C 334,87.5 333.5,87 333,86.5C 332.175,76.6578 332.342,66.9911 333.5,57.5 Z"/></g>
<g><path style="opacity:0.361" fill="#616161" d="M 769.5,86.5 C 770.167,86.5 770.833,86.5 771.5,86.5C 769.095,87.7682 766.428,88.4349 763.5,88.5C 765.214,87.2616 767.214,86.595 769.5,86.5 Z"/></g>
<g><path style="opacity:0.141" fill="#454545" d="M 948.5,85.5 C 949.906,85.9731 950.573,86.9731 950.5,88.5C 949.094,88.0269 948.427,87.0269 948.5,85.5 Z"/></g>
<g><path style="opacity:0.012" fill="#282828" d="M 172.5,85.5 C 173.404,86.209 173.737,87.209 173.5,88.5C 175.735,88.2053 177.735,88.5386 179.5,89.5C 177.833,89.5 176.167,89.5 174.5,89.5C 172.824,88.8166 172.157,87.4832 172.5,85.5 Z"/></g>
<g><path style="opacity:0.316" fill="#6a6a6a" d="M 187.5,89.5 C 183.066,90.7943 178.733,90.7943 174.5,89.5C 176.167,89.5 177.833,89.5 179.5,89.5C 182.328,88.5033 184.995,88.5033 187.5,89.5 Z"/></g>
<g><path style="opacity:0.126" fill="#757575" d="M 467.5,87.5 C 471.572,89.3331 475.572,89.9997 479.5,89.5C 476.024,90.6433 472.358,90.8099 468.5,90C 467.748,89.3292 467.414,88.4959 467.5,87.5 Z"/></g>
<g><path style="opacity:0.898" fill="#b5b5b5" d="M 927.5,88.5 C 928.822,88.33 929.989,88.6634 931,89.5C 930.577,91.3867 930.744,93.3867 931.5,95.5C 929.929,93.3649 928.596,91.0316 927.5,88.5 Z"/></g>
<g><path style="opacity:0.098" fill="#2e2e2e" d="M 951.5,90.5 C 953.25,91.6594 954.25,93.326 954.5,95.5C 952.75,94.3406 951.75,92.674 951.5,90.5 Z"/></g>
<g><path style="opacity:0.157" fill="#4a4a4a" d="M 119.5,89.5 C 119.59,92.1522 118.924,94.4855 117.5,96.5C 117.41,93.8478 118.076,91.5145 119.5,89.5 Z"/></g>
<g><path style="opacity:0.122" fill="#323232" d="M 312.5,91.5 C 313.234,92.7079 313.567,94.0413 313.5,95.5C 311.862,94.2954 311.529,92.9621 312.5,91.5 Z"/></g>
<g><path style="opacity:0.01" fill="#2b2b2b" d="M 89.5,93.5 C 90.8699,96.6189 91.8699,99.9523 92.5,103.5C 90.6973,100.61 89.364,97.4429 88.5,94C 88.7284,93.6012 89.0618,93.4346 89.5,93.5 Z"/></g>
<g><path style="opacity:0.137" fill="#3b3b3b" d="M 772.5,99.5 C 773.623,98.2426 774.289,98.5759 774.5,100.5C 773.833,100.167 773.167,99.8333 772.5,99.5 Z"/></g>
<g><path style="opacity:0.996" fill="#2f3032" d="M 827.5,95.5 C 827.56,94.9569 827.893,94.6236 828.5,94.5C 830.167,95.3333 831.833,96.1667 833.5,97C 843.931,99.1422 854.264,98.9755 864.5,96.5C 851.799,103.15 839.466,102.817 827.5,95.5 Z"/></g>
<g><path style="opacity:0.008" fill="#1a1a1a" d="M 267.5,99.5 C 267.56,98.9569 267.893,98.6236 268.5,98.5C 269.429,99.6888 269.762,101.022 269.5,102.5C 268.833,101.5 268.167,100.5 267.5,99.5 Z"/></g>
<g><path style="opacity:0.024" fill="#2e2e2e" d="M 66.5,98.5 C 66.7406,100.898 66.0739,102.898 64.5,104.5C 64.5,104.167 64.5,103.833 64.5,103.5C 64.7959,101.597 65.4625,99.9303 66.5,98.5 Z"/></g>
<g><path style="opacity:0.632" fill="#7d7d7d" d="M 41.5,103.5 C 49.1667,103.5 56.8333,103.5 64.5,103.5C 64.5,103.833 64.5,104.167 64.5,104.5C 61.2883,105.083 57.6216,105.417 53.5,105.5C 49.2032,105.722 45.2032,105.055 41.5,103.5 Z"/></g>
<g><path style="opacity:0.607" fill="#7d7d7d" d="M 92.5,103.5 C 100.167,103.5 107.833,103.5 115.5,103.5C 115.217,104.289 114.717,104.956 114,105.5C 108.036,105.578 101.869,105.411 95.5,105C 94.2625,104.768 93.2625,104.268 92.5,103.5 Z"/></g>
<g><path style="opacity:0.027" fill="#3c3c3c" d="M 209.5,103.5 C 204.966,104.216 200.299,104.883 195.5,105.5C 194.893,105.376 194.56,105.043 194.5,104.5C 199.405,103.555 204.405,103.221 209.5,103.5 Z"/></g>
<g><path style="opacity:0.192" fill="#8b8b8b" d="M 487.5,104.5 C 490.962,103.518 494.629,103.185 498.5,103.5C 495.437,104.201 492.27,104.868 489,105.5C 488.617,104.944 488.117,104.611 487.5,104.5 Z"/></g>
<g><path style="opacity:0.125" fill="#b2b2b2" d="M 690.5,85.5 C 691.49,91.6446 691.823,97.9779 691.5,104.5C 684.313,104.825 677.313,104.491 670.5,103.5C 677.167,103.5 683.833,103.5 690.5,103.5C 690.5,97.5 690.5,91.5 690.5,85.5 Z"/></g>
<g><path style="opacity:0.169" fill="#5b5b5b" d="M 762.5,103.5 C 761.828,104.267 760.995,104.934 760,105.5C 759.601,105.272 759.435,104.938 759.5,104.5C 760.209,103.596 761.209,103.263 762.5,103.5 Z"/></g>
<g><path style="opacity:0.433" fill="#979797" d="M 774.5,102.5 C 780.744,103.458 787.077,103.791 793.5,103.5C 793.938,103.435 794.272,103.601 794.5,104C 793.737,104.944 792.737,105.444 791.5,105.5C 785.431,105.257 779.764,104.257 774.5,102.5 Z"/></g>
<g><path style="opacity:0.014" fill="#111111" d="M 541.5,99.5 C 542.461,101.265 542.795,103.265 542.5,105.5C 534.774,105.438 527.107,105.605 519.5,106C 520.056,105.617 520.389,105.117 520.5,104.5C 527.167,104.5 533.833,104.5 540.5,104.5C 541.451,103.081 541.784,101.415 541.5,99.5 Z"/></g>
<g><path style="opacity:0.545" fill="#727272" d="M 739.5,103.5 C 745.797,104.32 752.131,104.653 758.5,104.5C 752.042,107.237 745.709,106.903 739.5,103.5 Z"/></g>
<g><path style="opacity:0.031" fill="#1e1e1e" d="M 254.5,104.5 C 250.598,106.489 246.598,106.823 242.5,105.5C 246.519,105.354 250.519,105.021 254.5,104.5 Z"/></g>
<g><path style="opacity:0.004" fill="#070707" d="M 606.5,104.5 C 607.5,104.5 608.5,104.5 609.5,104.5C 608.26,106.985 607.26,106.985 606.5,104.5 Z"/></g>
</svg>
